<svg width="10" height="15" viewBox="0 0 10 15" fill="none" xmlns="http://www.w3.org/2000/svg">
<path d="M2.28559 14.9519H0.630663C0.573881 14.952 0.51768 14.9406 0.465517 14.9184C0.413354 14.8963 0.366333 14.8638 0.327348 14.823C0.288363 14.7822 0.258238 14.7339 0.238827 14.6812C0.219416 14.6285 0.21113 14.5724 0.214478 14.5164V7.45766C0.214478 7.34858 0.258326 7.24397 0.336376 7.16684C0.414426 7.08971 0.520284 7.04638 0.630663 7.04638H4.97607C5.5112 7.05738 6.03189 6.87441 6.43985 6.53201C6.84782 6.18961 7.11483 5.71147 7.1905 5.18785C7.22984 4.89337 7.20498 4.59397 7.11759 4.30976C7.03019 4.02556 6.88229 3.76311 6.6838 3.54005C6.48531 3.31698 6.24084 3.13845 5.96678 3.01645C5.69272 2.89445 5.39543 2.83179 5.09484 2.83268H0.510912C0.400533 2.83268 0.294674 2.78935 0.216624 2.71222C0.138574 2.63509 0.0947266 2.53048 0.0947266 2.4214V0.85873C0.0947266 0.749651 0.138574 0.64504 0.216624 0.56791C0.294674 0.49078 0.400533 0.447449 0.510912 0.447449H4.89166C6.05241 0.437333 7.17692 0.846578 8.05377 1.59824C8.93063 2.34991 9.49944 3.39222 9.65326 4.52922C9.71644 5.16011 9.64523 5.79708 9.44421 6.39912C9.2432 7.00116 8.91684 7.55493 8.48614 8.02478C8.05544 8.49463 7.52994 8.87015 6.94349 9.12715C6.35704 9.38415 5.72263 9.51694 5.0811 9.51697H3.11796C3.00758 9.51697 2.90172 9.5603 2.82367 9.63743C2.74562 9.71457 2.70178 9.81918 2.70178 9.92826V14.5164C2.70513 14.5724 2.69684 14.6285 2.67743 14.6812C2.65802 14.7339 2.62789 14.7822 2.58891 14.823C2.54992 14.8638 2.5029 14.8963 2.45074 14.9184C2.39857 14.9406 2.34237 14.952 2.28559 14.9519Z" fill="#1487CF"/>
</svg>
