<svg width="9" height="15" viewBox="0 0 9 15" fill="none" xmlns="http://www.w3.org/2000/svg">
<path d="M8.37955 14.9504H0.379748C0.275493 14.936 0.180667 14.883 0.114368 14.8022C0.0480691 14.7213 0.0152265 14.6187 0.0224581 14.5149V0.847562C0.0120695 0.74186 0.0434576 0.636283 0.110054 0.552933C0.176651 0.469583 0.273292 0.414922 0.379748 0.400391H2.03468C2.14506 0.400391 2.25091 0.443722 2.32896 0.520852C2.40701 0.597982 2.45086 0.702593 2.45086 0.811672V12.0346C2.45086 12.1437 2.49471 12.2483 2.57276 12.3254C2.65081 12.4026 2.75667 12.4459 2.86705 12.4459H8.31967C8.43005 12.4459 8.53591 12.4892 8.61396 12.5663C8.69201 12.6435 8.73585 12.7481 8.73585 12.8572V14.5159C8.74309 14.6197 8.71024 14.7223 8.64394 14.8031C8.57765 14.8839 8.48282 14.9369 8.37856 14.9514L8.37955 14.9504Z" fill="#1487CF"/>
</svg>
