<svg width="12" height="15" viewBox="0 0 12 15" fill="none" xmlns="http://www.w3.org/2000/svg">
<path d="M10.5574 3.48144C10.4955 3.56297 10.4053 3.61893 10.3041 3.63846C10.2029 3.658 10.098 3.63972 10.0097 3.58717C8.81794 2.91009 7.42186 2.67259 6.06964 2.91689C4.87899 3.17589 3.62945 4.16432 4.59728 5.37585C5.20487 6.14021 6.76361 6.35264 7.63328 6.71737C8.9076 7.08464 10.0562 7.789 10.9549 8.75437C12.6815 11.1076 10.8244 14.1864 8.16922 14.7538C5.73415 15.1397 3.2402 14.6367 1.15295 13.3386C1.10802 13.3073 1.06981 13.2675 1.04053 13.2215C1.01124 13.1756 0.991464 13.1243 0.982338 13.0707C0.973211 13.0172 0.974915 12.9623 0.987352 12.9094C0.999788 12.8565 1.02271 12.8065 1.0548 12.7624L1.69772 11.8681C1.74378 11.8008 1.80951 11.7489 1.88614 11.7194C1.96278 11.69 2.04668 11.6843 2.12667 11.7032C3.61473 12.033 10.4602 13.3968 9.07913 10.5266C8.60307 9.25586 5.50818 8.75049 4.41275 8.23251C2.43685 7.32653 1.10289 5.24393 2.11489 3.11478C3.69816 -0.225914 8.56675 0.204768 11.2572 1.93816C11.3039 1.96949 11.3435 2.00986 11.3739 2.05681C11.4043 2.10376 11.4246 2.15631 11.4338 2.21128C11.443 2.26625 11.4408 2.32249 11.4273 2.37659C11.4138 2.43069 11.3894 2.48151 11.3554 2.52598L10.5574 3.48144Z" fill="#1487CF"/>
</svg>
