<svg width="11" height="16" viewBox="0 0 11 16" fill="none" xmlns="http://www.w3.org/2000/svg">
<path d="M10.4387 0.400391H8.77008C8.6597 0.400391 8.55384 0.443722 8.47579 0.520852C8.39774 0.597982 8.3539 0.702593 8.3539 0.811672V9.80942C8.35251 10.2309 8.25607 10.6467 8.07158 11.0267C7.8871 11.4067 7.61922 11.7412 7.28743 12.006C6.95564 12.2708 6.56828 12.4592 6.15355 12.5574C5.73882 12.6557 5.30714 12.6613 4.88993 12.5739C4.23933 12.4308 3.65832 12.071 3.24439 11.5547C2.83046 11.0385 2.60881 10.3972 2.61662 9.73861V0.847562C2.61662 0.738484 2.57277 0.633873 2.49472 0.556743C2.41667 0.479612 2.31081 0.43628 2.20043 0.43628H0.570046C0.459667 0.43628 0.353802 0.479612 0.275752 0.556743C0.197702 0.633873 0.153857 0.738484 0.153857 0.847562V9.62318C0.135376 10.9285 0.595024 12.1965 1.44807 13.1933C2.30111 14.1902 3.49005 14.8487 4.79571 15.0474C5.55015 15.1443 6.31681 15.0812 7.04467 14.8624C7.77253 14.6437 8.44489 14.2742 9.01701 13.7787C9.58914 13.2831 10.0479 12.6729 10.3628 11.9885C10.6777 11.3041 10.8414 10.5612 10.8432 9.80942V0.847562C10.8481 0.79158 10.8415 0.735182 10.8235 0.68185C10.8056 0.628519 10.7768 0.579387 10.7389 0.537484C10.701 0.495581 10.6548 0.461797 10.6032 0.438218C10.5516 0.41464 10.4956 0.401765 10.4387 0.400391Z" fill="url(#paint0_linear)"/>
<defs>
<linearGradient id="paint0_linear" x1="-0.391943" y1="7.76065" x2="22.8405" y2="7.76065" gradientUnits="userSpaceOnUse">
<stop stop-color="#1487CF"/>
<stop offset="1" stop-color="#FFD83A"/>
</linearGradient>
</defs>
</svg>
