<svg width="14" height="15" viewBox="0 0 14 15" fill="none" xmlns="http://www.w3.org/2000/svg">
<path d="M13.9493 14.4222L9.98574 0.611313C9.95995 0.527949 9.90803 0.454839 9.83746 0.402535C9.76689 0.350231 9.68132 0.321438 9.59311 0.320312H5.42635C5.33815 0.321438 5.25258 0.350231 5.18201 0.402535C5.11144 0.454839 5.05951 0.527949 5.03372 0.611313L0.911133 14.9518H3.16874C3.25695 14.9507 3.34251 14.9219 3.41308 14.8696C3.48365 14.8173 3.53558 14.7442 3.56137 14.6608L4.75201 10.5199C4.7778 10.4365 4.82973 10.3634 4.9003 10.3111C4.97087 10.2588 5.05643 10.23 5.14464 10.2289H9.83458C9.92279 10.23 10.0083 10.2588 10.0789 10.3111C10.1495 10.3634 10.2014 10.4365 10.2272 10.5199L11.4179 14.6608C11.4436 14.7442 11.4956 14.8173 11.5661 14.8696C11.6367 14.9219 11.7223 14.9507 11.8105 14.9518H13.5243C13.5907 14.9546 13.6567 14.9417 13.717 14.9141C13.7773 14.8865 13.83 14.845 13.8707 14.7932C13.9115 14.7413 13.9391 14.6806 13.9512 14.6161C13.9633 14.5515 13.9597 14.4851 13.9405 14.4222H13.9493ZM8.90209 7.7515H6.09284C6.02877 7.75188 5.96548 7.73763 5.9079 7.70987C5.85031 7.68211 5.79999 7.64159 5.76086 7.59146C5.72172 7.54133 5.69482 7.48295 5.68226 7.42087C5.6697 7.35878 5.67181 7.29467 5.68843 7.23352L6.87907 3.0693C6.90051 2.97916 6.9521 2.89881 7.02549 2.84124C7.09889 2.78368 7.18978 2.75227 7.28348 2.75211H7.73598C7.8262 2.75074 7.91443 2.77838 7.98737 2.83086C8.06031 2.88335 8.11402 2.95784 8.14039 3.04311L9.33104 7.20733C9.35308 7.27194 9.35853 7.34095 9.34688 7.40815C9.33524 7.47535 9.30687 7.53864 9.26433 7.59232C9.22179 7.646 9.16641 7.68838 9.10318 7.71566C9.03995 7.74294 8.97085 7.75426 8.90209 7.74859V7.7515Z" fill="url(#paint0_linear)"/>
<defs>
<linearGradient id="paint0_linear" x1="-12.3969" y1="7.62163" x2="10.84" y2="7.62163" gradientUnits="userSpaceOnUse">
<stop stop-color="#1487CF"/>
<stop offset="1" stop-color="#FFD83A"/>
</linearGradient>
</defs>
</svg>
